<mxfile host="app.diagrams.net" agent="Mozilla/5.0 (Windows NT 10.0; Win64; x64) AppleWebKit/537.36 (KHTML, like Gecko) Chrome/127.0.0.0 Safari/537.36" version="24.7.6">
  <diagram id="C5RBs43oDa-KdzZeNtuy" name="Page-1">
    <mxGraphModel dx="1185" dy="621" grid="1" gridSize="10" guides="1" tooltips="1" connect="1" arrows="1" fold="1" page="1" pageScale="1" pageWidth="827" pageHeight="1169" math="0" shadow="0">
      <root>
        <mxCell id="WIyWlLk6GJQsqaUBKTNV-0" />
        <mxCell id="WIyWlLk6GJQsqaUBKTNV-1" parent="WIyWlLk6GJQsqaUBKTNV-0" />
        <mxCell id="003qnyI-rnYT914vEPMR-1" value="&lt;p style=&quot;margin:0px;margin-top:4px;text-align:center;&quot;&gt;&lt;i&gt;&amp;lt;&amp;lt;Interface&amp;gt;&amp;gt;&lt;/i&gt;&lt;br&gt;&lt;b&gt;OperatoriDAO&lt;/b&gt;&lt;/p&gt;&lt;hr size=&quot;1&quot; style=&quot;border-style:solid;&quot;&gt;&lt;p style=&quot;margin:0px;margin-left:4px;&quot;&gt;+&amp;nbsp;inserisciNuovoOperatore(nuovoOperatore: Operatore): boolean&lt;br&gt;&lt;/p&gt;&lt;p style=&quot;margin:0px;margin-left:4px;&quot;&gt;+&amp;nbsp;ottieniOperatoreDaUsername(username: int): Operatore&lt;/p&gt;" style="verticalAlign=top;align=left;overflow=fill;html=1;whiteSpace=wrap;" parent="WIyWlLk6GJQsqaUBKTNV-1" vertex="1">
          <mxGeometry x="20" y="70" width="360" height="90" as="geometry" />
        </mxCell>
        <mxCell id="003qnyI-rnYT914vEPMR-2" value="&lt;p style=&quot;margin:0px;margin-top:4px;text-align:center;&quot;&gt;&lt;i&gt;&amp;lt;&amp;lt;Interface&amp;gt;&amp;gt;&lt;/i&gt;&lt;br&gt;&lt;b&gt;PuntiInteresseDAO&lt;/b&gt;&lt;br&gt;&lt;/p&gt;&lt;hr size=&quot;1&quot; style=&quot;border-style:solid;&quot;&gt;&lt;p style=&quot;margin:0px;margin-left:4px;&quot;&gt;+&amp;nbsp;ottieniElencoPuntiInteresse():&amp;nbsp;PuntoInteresse[]&lt;br&gt;&lt;/p&gt;&lt;p style=&quot;margin:0px;margin-left:4px;&quot;&gt;+&amp;nbsp;ottieniPuntiInteressePerNome(nome: String):&amp;nbsp;&lt;span style=&quot;background-color: initial;&quot;&gt;PuntoInteresse[]&lt;/span&gt;&lt;/p&gt;&lt;p style=&quot;margin:0px;margin-left:4px;&quot;&gt;&lt;span style=&quot;background-color: initial;&quot;&gt;+&amp;nbsp;&lt;/span&gt;&lt;span style=&quot;background-color: initial;&quot;&gt;ottieniPuntiInteressePerCodiceNazione(codiceNazione: String):&amp;nbsp;&lt;/span&gt;&lt;span style=&quot;background-color: initial;&quot;&gt;PuntoInteresse[]&lt;/span&gt;&lt;/p&gt;&lt;p style=&quot;margin:0px;margin-left:4px;&quot;&gt;&lt;span style=&quot;background-color: initial;&quot;&gt;+&amp;nbsp;&lt;/span&gt;&lt;span style=&quot;background-color: initial;&quot;&gt;ottieniPuntiInteressePerNomeECodiceNazione(&lt;/span&gt;&lt;span style=&quot;background-color: initial;&quot;&gt;nomePuntoInteresse: String, codiceNazione: String): PuntoInteresse&lt;/span&gt;&lt;/p&gt;" style="verticalAlign=top;align=left;overflow=fill;html=1;whiteSpace=wrap;" parent="WIyWlLk6GJQsqaUBKTNV-1" vertex="1">
          <mxGeometry x="20" y="530" width="450" height="140" as="geometry" />
        </mxCell>
        <mxCell id="003qnyI-rnYT914vEPMR-3" value="&lt;p style=&quot;margin:0px;margin-top:4px;text-align:center;&quot;&gt;&lt;i&gt;&amp;lt;&amp;lt;Interface&amp;gt;&amp;gt;&lt;/i&gt;&lt;br&gt;&lt;b&gt;CentriMonitoraggioDAO&lt;/b&gt;&lt;br&gt;&lt;/p&gt;&lt;hr size=&quot;1&quot; style=&quot;border-style:solid;&quot;&gt;&lt;p style=&quot;margin:0px;margin-left:4px;&quot;&gt;+&amp;nbsp;inserisciCentroMonitoraggio(nuovoCentro:&amp;nbsp;CentroMonitoraggio): void&lt;br&gt;&lt;/p&gt;&lt;p style=&quot;margin:0px;margin-left:4px;&quot;&gt;+&amp;nbsp;inserisciPuntiInteresseMonitoratiDaCentro(nomeCentro: String,&amp;nbsp;elencoPuntiInteresse:&amp;nbsp;PuntoInteresse[]): void&lt;/p&gt;&lt;p style=&quot;margin:0px;margin-left:4px;&quot;&gt;+&amp;nbsp;ottieniPuntiInteresseMonitoratiDaCentro(nomeCentro: String):&amp;nbsp;ArrayList&amp;lt;PuntoInteresse&amp;gt;&lt;/p&gt;&lt;p style=&quot;margin:0px;margin-left:4px;&quot;&gt;+&amp;nbsp;aggiornaCentroMonitoraggioAssociatoOperatore(username: int, nomeCentro: String): void&lt;/p&gt;&lt;p style=&quot;margin:0px;margin-left:4px;&quot;&gt;+&amp;nbsp;ottieniPaeseDaCentro(nomePaese: String,&amp;nbsp;codice: String, nomeCentro: String): PuntoInteresse&lt;/p&gt;&lt;p style=&quot;margin:0px;margin-left:4px;&quot;&gt;+&amp;nbsp;leggiTuttiCentri():&amp;nbsp;ArrayList&amp;lt;CentroMonitoraggio&amp;gt;&lt;/p&gt;&lt;p style=&quot;margin:0px;margin-left:4px;&quot;&gt;+&amp;nbsp;esisteCentroMonitoraggio(nomeCentro: String): boolean&lt;/p&gt;" style="verticalAlign=top;align=left;overflow=fill;html=1;whiteSpace=wrap;" parent="WIyWlLk6GJQsqaUBKTNV-1" vertex="1">
          <mxGeometry x="20" y="1010" width="460" height="215" as="geometry" />
        </mxCell>
        <mxCell id="003qnyI-rnYT914vEPMR-4" value="&lt;p style=&quot;margin:0px;margin-top:4px;text-align:center;&quot;&gt;&lt;i&gt;&amp;lt;&amp;lt;Interface&amp;gt;&amp;gt;&lt;/i&gt;&lt;br&gt;&lt;b&gt;MisurazioniDAO&lt;/b&gt;&lt;br&gt;&lt;/p&gt;&lt;hr size=&quot;1&quot; style=&quot;border-style:solid;&quot;&gt;&lt;p style=&quot;margin:0px;margin-left:4px;&quot;&gt;+&amp;nbsp;inserisciNuovaMisurazione(nuovaMisurazione: Misurazione): void&lt;br&gt;&lt;/p&gt;&lt;p style=&quot;margin:0px;margin-left:4px;&quot;&gt;+&amp;nbsp;ottieniMisurazioniPuntoInteresse(idPuntoInteresse: int): Misurazione[]&lt;/p&gt;" style="verticalAlign=top;align=left;overflow=fill;html=1;whiteSpace=wrap;" parent="WIyWlLk6GJQsqaUBKTNV-1" vertex="1">
          <mxGeometry x="30" y="1380" width="390" height="90" as="geometry" />
        </mxCell>
        <mxCell id="003qnyI-rnYT914vEPMR-5" value="&lt;p style=&quot;margin:0px;margin-top:4px;text-align:center;&quot;&gt;&lt;b&gt;ImplOperatoriDAO&lt;/b&gt;&lt;br&gt;&lt;/p&gt;&lt;hr size=&quot;1&quot; style=&quot;border-style:solid;&quot;&gt;&lt;p style=&quot;margin:0px;margin-left:4px;&quot;&gt;- QUERY_INSERIMENTO_NUOVO_OPERATORE: String&lt;/p&gt;&lt;p style=&quot;margin:0px;margin-left:4px;&quot;&gt;-&amp;nbsp;QUERY_OPERATORE_DA_USERNAME: String&lt;/p&gt;&lt;hr size=&quot;1&quot; style=&quot;border-style:solid;&quot;&gt;&lt;p style=&quot;margin: 0px 0px 0px 4px;&quot;&gt;+ ImplOperatoriDAO()&lt;/p&gt;&lt;p style=&quot;margin: 0px 0px 0px 4px;&quot;&gt;+&amp;nbsp;inserisciNuovoOperatore(nuovoOperatore: Operatore): boolean&lt;br&gt;&lt;/p&gt;&lt;p style=&quot;margin: 0px 0px 0px 4px;&quot;&gt;+&amp;nbsp;ottieniOperatoreDaUsername(username: int): Operatore&lt;/p&gt;" style="verticalAlign=top;align=left;overflow=fill;html=1;whiteSpace=wrap;" parent="WIyWlLk6GJQsqaUBKTNV-1" vertex="1">
          <mxGeometry x="570" y="40" width="370" height="140" as="geometry" />
        </mxCell>
        <mxCell id="003qnyI-rnYT914vEPMR-6" value="&lt;p style=&quot;margin:0px;margin-top:4px;text-align:center;&quot;&gt;&lt;b&gt;ImplPuntiInteresseDAO&lt;/b&gt;&lt;br&gt;&lt;/p&gt;&lt;hr size=&quot;1&quot; style=&quot;border-style:solid;&quot;&gt;&lt;p style=&quot;margin:0px;margin-left:4px;&quot;&gt;-&amp;nbsp;QUERY_ELENCO_POI: String&lt;/p&gt;&lt;p style=&quot;margin:0px;margin-left:4px;&quot;&gt;-&amp;nbsp;QUERY_POI_PER_NOME: String&lt;/p&gt;&lt;p style=&quot;margin:0px;margin-left:4px;&quot;&gt;-&amp;nbsp;QUERY_POI_PER_CODICE_NAZIONE: String&lt;/p&gt;&lt;p style=&quot;margin:0px;margin-left:4px;&quot;&gt;-&amp;nbsp;QUERY_POI_PER_NOME_E_CODICE_NAZIONE: String&lt;/p&gt;&lt;hr size=&quot;1&quot; style=&quot;border-style:solid;&quot;&gt;&lt;p style=&quot;margin:0px;margin-left:4px;&quot;&gt;+ ImplPuntiInteresseDAO()&lt;/p&gt;&lt;p style=&quot;margin: 0px 0px 0px 4px;&quot;&gt;+&amp;nbsp;ottieniElencoPuntiInteresse():&amp;nbsp;PuntoInteresse[]&lt;br&gt;&lt;/p&gt;&lt;p style=&quot;margin: 0px 0px 0px 4px;&quot;&gt;+&amp;nbsp;ottieniPuntiInteressePerNome(nome: String):&amp;nbsp;&lt;span style=&quot;background-color: initial;&quot;&gt;PuntoInteresse[]&lt;/span&gt;&lt;/p&gt;&lt;p style=&quot;margin: 0px 0px 0px 4px;&quot;&gt;&lt;span style=&quot;background-color: initial;&quot;&gt;+&amp;nbsp;&lt;/span&gt;&lt;span style=&quot;background-color: initial;&quot;&gt;ottieniPuntiInteressePerCodiceNazione(codiceNazione: String):&amp;nbsp;&lt;/span&gt;&lt;span style=&quot;background-color: initial;&quot;&gt;PuntoInteresse[]&lt;/span&gt;&lt;/p&gt;&lt;p style=&quot;margin: 0px 0px 0px 4px;&quot;&gt;&lt;span style=&quot;background-color: initial;&quot;&gt;+&amp;nbsp;&lt;/span&gt;&lt;span style=&quot;background-color: initial;&quot;&gt;ottieniPuntiInteressePerNomeECodiceNazione(&lt;/span&gt;&lt;span style=&quot;background-color: initial;&quot;&gt;nomePuntoInteresse: String, codiceNazione: String): PuntoInteresse&lt;/span&gt;&lt;/p&gt;&lt;p style=&quot;margin:0px;margin-left:4px;&quot;&gt;-&amp;nbsp;parseInt(str: String): int&lt;/p&gt;" style="verticalAlign=top;align=left;overflow=fill;html=1;whiteSpace=wrap;" parent="WIyWlLk6GJQsqaUBKTNV-1" vertex="1">
          <mxGeometry x="600" y="485" width="450" height="230" as="geometry" />
        </mxCell>
        <mxCell id="003qnyI-rnYT914vEPMR-7" value="&lt;p style=&quot;margin:0px;margin-top:4px;text-align:center;&quot;&gt;&lt;b&gt;ImplCentriMonitoraggioDAO&lt;/b&gt;&lt;br&gt;&lt;/p&gt;&lt;hr size=&quot;1&quot; style=&quot;border-style:solid;&quot;&gt;&lt;p style=&quot;margin:0px;margin-left:4px;&quot;&gt;-&amp;nbsp;QUERY_INSERIMENTO_NUOVO_CENTRO: String&lt;/p&gt;&lt;p style=&quot;margin:0px;margin-left:4px;&quot;&gt;-&amp;nbsp;QUERY_INSERIMENTO_NUOVI_PUNTI_INTERESSE_MONITORATI: String&lt;/p&gt;&lt;p style=&quot;margin:0px;margin-left:4px;&quot;&gt;-&amp;nbsp;QUERY_OTTIENI_PUNTI_INTERESSE_ASSOCIATI_A_CENTRO_MONITORAGGIO: String&lt;/p&gt;&lt;p style=&quot;margin:0px;margin-left:4px;&quot;&gt;-&amp;nbsp;QUERY_AGGIORNA_OPERATORE_CENTRO_ASSOCIATO: String&lt;/p&gt;&lt;p style=&quot;margin:0px;margin-left:4px;&quot;&gt;-&amp;nbsp;QUERY_OTTIENI_PAESE_ASSOCIATO_A_CENTRO: String&lt;/p&gt;&lt;p style=&quot;margin:0px;margin-left:4px;&quot;&gt;-&amp;nbsp;QUERY_LETTURA_CENTRI_DI_MONITORAGGIO: String&lt;/p&gt;&lt;p style=&quot;margin:0px;margin-left:4px;&quot;&gt;-&amp;nbsp;QUERY_VERIFICA_NOME_CENTRO_DUPLICATO: String&lt;/p&gt;&lt;hr size=&quot;1&quot; style=&quot;border-style:solid;&quot;&gt;&lt;p style=&quot;margin: 0px 0px 0px 4px;&quot;&gt;+&amp;nbsp;ImplCentriMonitoraggioDAO()&lt;/p&gt;&lt;p style=&quot;margin: 0px 0px 0px 4px;&quot;&gt;+&amp;nbsp;inserisciCentroMonitoraggio(nuovoCentro:&amp;nbsp;CentroMonitoraggio): void&lt;br&gt;&lt;/p&gt;&lt;p style=&quot;margin: 0px 0px 0px 4px;&quot;&gt;+&amp;nbsp;inserisciPuntiInteresseMonitoratiDaCentro(nomeCentro: String,&amp;nbsp;elencoPuntiInteresse:&amp;nbsp;PuntoInteresse[]): void&lt;/p&gt;&lt;p style=&quot;margin: 0px 0px 0px 4px;&quot;&gt;+&amp;nbsp;ottieniPuntiInteresseMonitoratiDaCentro(nomeCentro: String):&amp;nbsp;ArrayList&amp;lt;PuntoInteresse&amp;gt;&lt;/p&gt;&lt;p style=&quot;margin: 0px 0px 0px 4px;&quot;&gt;+&amp;nbsp;aggiornaCentroMonitoraggioAssociatoOperatore(username: int, nomeCentro: String): void&lt;/p&gt;&lt;p style=&quot;margin: 0px 0px 0px 4px;&quot;&gt;+&amp;nbsp;ottieniPaeseDaCentro(nomePaese: String,&amp;nbsp;codice: String, nomeCentro: String): PuntoInteresse&lt;/p&gt;&lt;p style=&quot;margin: 0px 0px 0px 4px;&quot;&gt;+&amp;nbsp;leggiTuttiCentri():&amp;nbsp;ArrayList&amp;lt;CentroMonitoraggio&amp;gt;&lt;/p&gt;&lt;p style=&quot;margin: 0px 0px 0px 4px;&quot;&gt;+&amp;nbsp;esisteCentroMonitoraggio(nomeCentro: String): boolean&lt;/p&gt;&lt;p style=&quot;margin: 0px 0px 0px 4px;&quot;&gt;-&amp;nbsp;parseInt(str: String): int&lt;br&gt;&lt;/p&gt;" style="verticalAlign=top;align=left;overflow=fill;html=1;whiteSpace=wrap;" parent="WIyWlLk6GJQsqaUBKTNV-1" vertex="1">
          <mxGeometry x="600" y="980" width="520" height="300" as="geometry" />
        </mxCell>
        <mxCell id="003qnyI-rnYT914vEPMR-8" value="&lt;p style=&quot;margin:0px;margin-top:4px;text-align:center;&quot;&gt;&lt;b&gt;ImplMisurazioniDAO&lt;/b&gt;&lt;br&gt;&lt;/p&gt;&lt;hr size=&quot;1&quot; style=&quot;border-style:solid;&quot;&gt;&lt;p style=&quot;margin:0px;margin-left:4px;&quot;&gt;-&amp;nbsp;QUERY_INSERIMENTO_NUOVA_MISURAZIONE: String&lt;/p&gt;&lt;p style=&quot;margin:0px;margin-left:4px;&quot;&gt;-&amp;nbsp;QUERY_ELENCO_MISURAZIONI_PUNTO_INTERESSE: String&lt;/p&gt;&lt;hr size=&quot;1&quot; style=&quot;border-style:solid;&quot;&gt;&lt;p style=&quot;margin: 0px 0px 0px 4px;&quot;&gt;+&amp;nbsp;ImplMisurazioniDAO()&lt;/p&gt;&lt;p style=&quot;margin: 0px 0px 0px 4px;&quot;&gt;+&amp;nbsp;inserisciNuovaMisurazione(nuovaMisurazione: Misurazione): void&lt;br&gt;&lt;/p&gt;&lt;p style=&quot;margin: 0px 0px 0px 4px;&quot;&gt;+&amp;nbsp;ottieniMisurazioniPuntoInteresse(idPuntoInteresse: int): Misurazione[]&lt;/p&gt;" style="verticalAlign=top;align=left;overflow=fill;html=1;whiteSpace=wrap;" parent="WIyWlLk6GJQsqaUBKTNV-1" vertex="1">
          <mxGeometry x="600" y="1355" width="390" height="140" as="geometry" />
        </mxCell>
        <mxCell id="003qnyI-rnYT914vEPMR-9" value="&lt;p style=&quot;margin:0px;margin-top:4px;text-align:center;&quot;&gt;&lt;b&gt;Autenticatore&lt;/b&gt;&lt;br&gt;&lt;/p&gt;&lt;hr size=&quot;1&quot; style=&quot;border-style:solid;&quot;&gt;&lt;p style=&quot;margin:0px;margin-left:4px;&quot;&gt;-&amp;nbsp;operatoriDAO: OperatoriDAO&lt;/p&gt;&lt;p style=&quot;margin:0px;margin-left:4px;&quot;&gt;- sessione: Sessione&lt;/p&gt;&lt;hr size=&quot;1&quot; style=&quot;border-style:solid;&quot;&gt;&lt;p style=&quot;margin:0px;margin-left:4px;&quot;&gt;+ Autenticatore()&lt;/p&gt;&lt;p style=&quot;margin:0px;margin-left:4px;&quot;&gt;+&amp;nbsp;registrazione(operatore Operatore): boolean&lt;/p&gt;&lt;p style=&quot;margin:0px;margin-left:4px;&quot;&gt;+ login(username: int, password: String): boolean&lt;/p&gt;&lt;p style=&quot;margin:0px;margin-left:4px;&quot;&gt;+&amp;nbsp;loginSenzaBcrypt(username: int, password: String): boolean&lt;/p&gt;&lt;p style=&quot;margin:0px;margin-left:4px;&quot;&gt;+&amp;nbsp;ottieniOperatoreAutenticato(): Operatore&lt;/p&gt;" style="verticalAlign=top;align=left;overflow=fill;html=1;whiteSpace=wrap;" parent="WIyWlLk6GJQsqaUBKTNV-1" vertex="1">
          <mxGeometry x="1080" y="30" width="340" height="160" as="geometry" />
        </mxCell>
        <mxCell id="003qnyI-rnYT914vEPMR-10" value="&lt;p style=&quot;margin:0px;margin-top:4px;text-align:center;&quot;&gt;&lt;b&gt;Sessione&lt;/b&gt;&lt;/p&gt;&lt;hr size=&quot;1&quot; style=&quot;border-style:solid;&quot;&gt;&lt;p style=&quot;margin:0px;margin-left:4px;&quot;&gt;-&amp;nbsp;operatore: Operatore&lt;/p&gt;&lt;hr size=&quot;1&quot; style=&quot;border-style:solid;&quot;&gt;&lt;p style=&quot;margin:0px;margin-left:4px;&quot;&gt;-&amp;nbsp;Sessione(operatore: Operatore)&lt;/p&gt;&lt;p style=&quot;margin:0px;margin-left:4px;&quot;&gt;+&amp;nbsp;ottieniSessione(): Sessione&lt;/p&gt;&lt;p style=&quot;margin:0px;margin-left:4px;&quot;&gt;+&amp;nbsp;setOperatore(operatore: Operatore): void&lt;/p&gt;&lt;p style=&quot;margin:0px;margin-left:4px;&quot;&gt;+&amp;nbsp;getOperatore(): Operatore&lt;/p&gt;" style="verticalAlign=top;align=left;overflow=fill;html=1;whiteSpace=wrap;" parent="WIyWlLk6GJQsqaUBKTNV-1" vertex="1">
          <mxGeometry x="1110" y="250" width="250" height="130" as="geometry" />
        </mxCell>
        <mxCell id="003qnyI-rnYT914vEPMR-11" value="&lt;p style=&quot;margin:0px;margin-top:4px;text-align:center;&quot;&gt;&lt;b&gt;contenitoreSingletonSessione&lt;/b&gt;&lt;br&gt;&lt;/p&gt;&lt;hr size=&quot;1&quot; style=&quot;border-style:solid;&quot;&gt;&lt;p style=&quot;margin:0px;margin-left:4px;&quot;&gt;- singleton: Sessione&lt;/p&gt;" style="verticalAlign=top;align=left;overflow=fill;html=1;whiteSpace=wrap;" parent="WIyWlLk6GJQsqaUBKTNV-1" vertex="1">
          <mxGeometry x="840" y="290" width="200" height="50" as="geometry" />
        </mxCell>
        <mxCell id="003qnyI-rnYT914vEPMR-12" value="&lt;p style=&quot;margin:0px;margin-top:4px;text-align:center;&quot;&gt;&lt;b&gt;RepositoryPuntiInteresse&lt;/b&gt;&lt;br&gt;&lt;/p&gt;&lt;hr size=&quot;1&quot; style=&quot;border-style:solid;&quot;&gt;&lt;p style=&quot;margin:0px;margin-left:4px;&quot;&gt;-&amp;nbsp;puntiInteresseDAO: PuntiInteresseDAO&lt;/p&gt;&lt;p style=&quot;margin:0px;margin-left:4px;&quot;&gt;-&amp;nbsp;PUNTI_INTERESSE_MAX_RICERCA_COORDINATE: int&lt;/p&gt;&lt;hr size=&quot;1&quot; style=&quot;border-style:solid;&quot;&gt;&lt;p style=&quot;margin:0px;margin-left:4px;&quot;&gt;+&amp;nbsp;RepositoryPuntiInteresse()&lt;/p&gt;&lt;p style=&quot;margin:0px;margin-left:4px;&quot;&gt;+&amp;nbsp;ottieniElencoPuntiInteresse():&amp;nbsp;PuntoInteresse[]&lt;/p&gt;&lt;p style=&quot;margin:0px;margin-left:4px;&quot;&gt;+&amp;nbsp;ricercaPerNome(nome: String):&amp;nbsp;&lt;span style=&quot;background-color: initial;&quot;&gt;PuntoInteresse[]&lt;/span&gt;&lt;/p&gt;&lt;p style=&quot;margin:0px;margin-left:4px;&quot;&gt;&lt;span style=&quot;background-color: initial;&quot;&gt;+&amp;nbsp;&lt;/span&gt;&lt;span style=&quot;background-color: initial;&quot;&gt;ricercaPerNazione(codiceNazione: String):&amp;nbsp;&lt;/span&gt;&lt;span style=&quot;background-color: initial;&quot;&gt;PuntoInteresse[]&lt;/span&gt;&lt;/p&gt;&lt;p style=&quot;margin:0px;margin-left:4px;&quot;&gt;&lt;span style=&quot;background-color: initial;&quot;&gt;+&amp;nbsp;&lt;/span&gt;&lt;span style=&quot;background-color: initial;&quot;&gt;ricercaPerCoordinate(latitudine: double, longitudine: double):&amp;nbsp;&lt;/span&gt;&lt;span style=&quot;background-color: initial;&quot;&gt;PuntoInteresse[]&lt;/span&gt;&lt;/p&gt;&lt;p style=&quot;margin:0px;margin-left:4px;&quot;&gt;&lt;span style=&quot;background-color: initial;&quot;&gt;+&amp;nbsp;&lt;/span&gt;&lt;span style=&quot;background-color: initial;&quot;&gt;ricercaPerNomeENazione(&lt;/span&gt;&lt;span style=&quot;background-color: initial;&quot;&gt;nomePuntoInteresse: String, codiceNazione: String): PuntoInteresse&lt;/span&gt;&lt;/p&gt;" style="verticalAlign=top;align=left;overflow=fill;html=1;whiteSpace=wrap;" parent="WIyWlLk6GJQsqaUBKTNV-1" vertex="1">
          <mxGeometry x="1220" y="485" width="350" height="205" as="geometry" />
        </mxCell>
        <mxCell id="003qnyI-rnYT914vEPMR-13" value="&lt;p style=&quot;margin:0px;margin-top:4px;text-align:center;&quot;&gt;&lt;b&gt;CalcoloHaversine&lt;/b&gt;&lt;br&gt;&lt;/p&gt;&lt;hr size=&quot;1&quot; style=&quot;border-style:solid;&quot;&gt;&lt;p style=&quot;margin:0px;margin-left:4px;&quot;&gt;-&amp;nbsp;RAGGIO_PIANETA_TERRA_KM: double&lt;/p&gt;&lt;hr size=&quot;1&quot; style=&quot;border-style:solid;&quot;&gt;&lt;p style=&quot;margin:0px;margin-left:4px;&quot;&gt;+&amp;nbsp;haversine(latitudine1: double,&amp;nbsp;longitudine1: double,&amp;nbsp;latitudine2: double,&amp;nbsp;longitudine2: double&lt;/p&gt;" style="verticalAlign=top;align=left;overflow=fill;html=1;whiteSpace=wrap;" parent="WIyWlLk6GJQsqaUBKTNV-1" vertex="1">
          <mxGeometry x="1260" y="750" width="270" height="120" as="geometry" />
        </mxCell>
        <mxCell id="003qnyI-rnYT914vEPMR-14" value="&lt;p style=&quot;margin:0px;margin-top:4px;text-align:center;&quot;&gt;&lt;b&gt;GestoreCentriMonitoraggio&lt;/b&gt;&lt;br&gt;&lt;/p&gt;&lt;hr size=&quot;1&quot; style=&quot;border-style:solid;&quot;&gt;&lt;p style=&quot;margin:0px;margin-left:4px;&quot;&gt;-&amp;nbsp;centriMonitoraggioDAO: CentriMonitoraggioDAO&lt;/p&gt;&lt;hr size=&quot;1&quot; style=&quot;border-style:solid;&quot;&gt;&lt;p style=&quot;margin:0px;margin-left:4px;&quot;&gt;+&amp;nbsp;GestoreCentriMonitoraggio()&lt;/p&gt;&lt;p style=&quot;margin:0px;margin-left:4px;&quot;&gt;+&amp;nbsp;registraCentroMonitoraggio(nuovoCentro:&amp;nbsp;CentroMonitoraggio): void&lt;/p&gt;&lt;p style=&quot;margin:0px;margin-left:4px;&quot;&gt;+&amp;nbsp;associaPuntiInteresseCentroMonitoraggio(nomeCentro: String,&amp;nbsp;elencoPuntiInteresse:&amp;nbsp;PuntoInteresse[]): void&lt;/p&gt;&lt;p style=&quot;margin:0px;margin-left:4px;&quot;&gt;+&amp;nbsp;ottieniAreeAssociate(nomeCentro: String):&amp;nbsp;ArrayList&amp;lt;PuntoInteresse&amp;gt;&lt;/p&gt;&lt;p style=&quot;margin:0px;margin-left:4px;&quot;&gt;+&amp;nbsp;associaCentroMonitoraggioOperatore(usernameOperatore: int, nomeNuovoCentro: String): void&lt;/p&gt;&lt;p style=&quot;margin:0px;margin-left:4px;&quot;&gt;+&amp;nbsp;ottieniPaese(nomePaese: String, codice: String, nomeCentro: String): PuntoInteresse&lt;/p&gt;&lt;p style=&quot;margin:0px;margin-left:4px;&quot;&gt;+&amp;nbsp;leggiCentri():&amp;nbsp;ArrayList&amp;lt;CentroMonitoraggio&amp;gt;&lt;/p&gt;&lt;p style=&quot;margin:0px;margin-left:4px;&quot;&gt;+&amp;nbsp;controllaEsistenzaCentro(nomeCentro: String): boolean&lt;/p&gt;" style="verticalAlign=top;align=left;overflow=fill;html=1;whiteSpace=wrap;" parent="WIyWlLk6GJQsqaUBKTNV-1" vertex="1">
          <mxGeometry x="1270" y="980" width="605" height="195" as="geometry" />
        </mxCell>
        <mxCell id="003qnyI-rnYT914vEPMR-15" value="&lt;p style=&quot;margin:0px;margin-top:4px;text-align:center;&quot;&gt;&lt;b&gt;GestoreMisurazioni&lt;/b&gt;&lt;br&gt;&lt;/p&gt;&lt;hr size=&quot;1&quot; style=&quot;border-style:solid;&quot;&gt;&lt;p style=&quot;margin:0px;margin-left:4px;&quot;&gt;-&amp;nbsp;misurazioniDAO: MisurazioniDAO&lt;/p&gt;&lt;hr size=&quot;1&quot; style=&quot;border-style:solid;&quot;&gt;&lt;p style=&quot;margin:0px;margin-left:4px;&quot;&gt;+&amp;nbsp;GestoreMisurazioni()&lt;/p&gt;&lt;p style=&quot;margin:0px;margin-left:4px;&quot;&gt;+&amp;nbsp;inserisciNuovaMisurazione(nuovaMisurazione:&amp;nbsp;Misurazione): void&lt;/p&gt;&lt;p style=&quot;margin:0px;margin-left:4px;&quot;&gt;+&amp;nbsp;ottieniMisurazioniSuPuntoInteresse(idPuntoInteresse: int):&amp;nbsp;Misurazione[]&lt;/p&gt;" style="verticalAlign=top;align=left;overflow=fill;html=1;whiteSpace=wrap;" parent="WIyWlLk6GJQsqaUBKTNV-1" vertex="1">
          <mxGeometry x="1360" y="1367.5" width="410" height="115" as="geometry" />
        </mxCell>
        <mxCell id="003qnyI-rnYT914vEPMR-16" value="" style="endArrow=block;dashed=1;endFill=0;endSize=12;html=1;rounded=0;exitX=0;exitY=0.5;exitDx=0;exitDy=0;entryX=1.002;entryY=0.45;entryDx=0;entryDy=0;entryPerimeter=0;" parent="WIyWlLk6GJQsqaUBKTNV-1" source="003qnyI-rnYT914vEPMR-5" target="003qnyI-rnYT914vEPMR-1" edge="1">
          <mxGeometry width="160" relative="1" as="geometry">
            <mxPoint x="430" y="140" as="sourcePoint" />
            <mxPoint x="400" y="130" as="targetPoint" />
          </mxGeometry>
        </mxCell>
        <mxCell id="003qnyI-rnYT914vEPMR-17" value="" style="endArrow=block;dashed=1;endFill=0;endSize=12;html=1;rounded=0;exitX=-0.006;exitY=0.532;exitDx=0;exitDy=0;exitPerimeter=0;entryX=1.006;entryY=0.553;entryDx=0;entryDy=0;entryPerimeter=0;" parent="WIyWlLk6GJQsqaUBKTNV-1" source="003qnyI-rnYT914vEPMR-6" target="003qnyI-rnYT914vEPMR-2" edge="1">
          <mxGeometry width="160" relative="1" as="geometry">
            <mxPoint x="470" y="250" as="sourcePoint" />
            <mxPoint x="630" y="250" as="targetPoint" />
          </mxGeometry>
        </mxCell>
        <mxCell id="003qnyI-rnYT914vEPMR-18" value="" style="endArrow=block;dashed=1;endFill=0;endSize=12;html=1;rounded=0;exitX=-0.005;exitY=0.53;exitDx=0;exitDy=0;exitPerimeter=0;entryX=1.006;entryY=0.619;entryDx=0;entryDy=0;entryPerimeter=0;" parent="WIyWlLk6GJQsqaUBKTNV-1" source="003qnyI-rnYT914vEPMR-7" target="003qnyI-rnYT914vEPMR-3" edge="1">
          <mxGeometry width="160" relative="1" as="geometry">
            <mxPoint x="470" y="570" as="sourcePoint" />
            <mxPoint x="630" y="570" as="targetPoint" />
          </mxGeometry>
        </mxCell>
        <mxCell id="003qnyI-rnYT914vEPMR-19" value="" style="endArrow=block;dashed=1;endFill=0;endSize=12;html=1;rounded=0;exitX=0;exitY=0.5;exitDx=0;exitDy=0;entryX=1;entryY=0.5;entryDx=0;entryDy=0;" parent="WIyWlLk6GJQsqaUBKTNV-1" source="003qnyI-rnYT914vEPMR-8" target="003qnyI-rnYT914vEPMR-4" edge="1">
          <mxGeometry width="160" relative="1" as="geometry">
            <mxPoint x="400" y="940" as="sourcePoint" />
            <mxPoint x="560" y="940" as="targetPoint" />
          </mxGeometry>
        </mxCell>
        <mxCell id="003qnyI-rnYT914vEPMR-20" value="" style="endArrow=none;html=1;rounded=0;exitX=1.004;exitY=0.602;exitDx=0;exitDy=0;exitPerimeter=0;entryX=-0.002;entryY=0.589;entryDx=0;entryDy=0;entryPerimeter=0;" parent="WIyWlLk6GJQsqaUBKTNV-1" source="003qnyI-rnYT914vEPMR-5" target="003qnyI-rnYT914vEPMR-9" edge="1">
          <mxGeometry width="50" height="50" relative="1" as="geometry">
            <mxPoint x="990" y="130" as="sourcePoint" />
            <mxPoint x="1040" y="80" as="targetPoint" />
          </mxGeometry>
        </mxCell>
        <mxCell id="003qnyI-rnYT914vEPMR-21" value="" style="endArrow=none;html=1;rounded=0;exitX=1;exitY=0.5;exitDx=0;exitDy=0;entryX=0;entryY=0.561;entryDx=0;entryDy=0;entryPerimeter=0;" parent="WIyWlLk6GJQsqaUBKTNV-1" source="003qnyI-rnYT914vEPMR-6" target="003qnyI-rnYT914vEPMR-12" edge="1">
          <mxGeometry width="50" height="50" relative="1" as="geometry">
            <mxPoint x="1050" y="400" as="sourcePoint" />
            <mxPoint x="1100" y="350" as="targetPoint" />
          </mxGeometry>
        </mxCell>
        <mxCell id="003qnyI-rnYT914vEPMR-22" value="" style="endArrow=none;html=1;rounded=0;exitX=1.001;exitY=0.398;exitDx=0;exitDy=0;exitPerimeter=0;entryX=0.003;entryY=0.613;entryDx=0;entryDy=0;entryPerimeter=0;" parent="WIyWlLk6GJQsqaUBKTNV-1" source="003qnyI-rnYT914vEPMR-7" target="003qnyI-rnYT914vEPMR-14" edge="1">
          <mxGeometry width="50" height="50" relative="1" as="geometry">
            <mxPoint x="1110" y="720" as="sourcePoint" />
            <mxPoint x="1160" y="670" as="targetPoint" />
          </mxGeometry>
        </mxCell>
        <mxCell id="003qnyI-rnYT914vEPMR-23" value="" style="endArrow=none;html=1;rounded=0;exitX=1.002;exitY=0.583;exitDx=0;exitDy=0;exitPerimeter=0;entryX=-0.005;entryY=0.6;entryDx=0;entryDy=0;entryPerimeter=0;" parent="WIyWlLk6GJQsqaUBKTNV-1" source="003qnyI-rnYT914vEPMR-8" target="003qnyI-rnYT914vEPMR-15" edge="1">
          <mxGeometry width="50" height="50" relative="1" as="geometry">
            <mxPoint x="1000" y="1070" as="sourcePoint" />
            <mxPoint x="1050" y="1020" as="targetPoint" />
          </mxGeometry>
        </mxCell>
        <mxCell id="003qnyI-rnYT914vEPMR-27" value="" style="endArrow=none;html=1;rounded=0;entryX=0.5;entryY=1;entryDx=0;entryDy=0;exitX=0.559;exitY=0.012;exitDx=0;exitDy=0;exitPerimeter=0;" parent="WIyWlLk6GJQsqaUBKTNV-1" source="003qnyI-rnYT914vEPMR-10" target="003qnyI-rnYT914vEPMR-9" edge="1">
          <mxGeometry width="50" height="50" relative="1" as="geometry">
            <mxPoint x="1010" y="260" as="sourcePoint" />
            <mxPoint x="1060" y="210" as="targetPoint" />
          </mxGeometry>
        </mxCell>
        <mxCell id="003qnyI-rnYT914vEPMR-28" value="" style="endArrow=none;html=1;rounded=0;entryX=0.5;entryY=1;entryDx=0;entryDy=0;exitX=0.5;exitY=0;exitDx=0;exitDy=0;" parent="WIyWlLk6GJQsqaUBKTNV-1" source="003qnyI-rnYT914vEPMR-13" target="003qnyI-rnYT914vEPMR-12" edge="1">
          <mxGeometry width="50" height="50" relative="1" as="geometry">
            <mxPoint x="1340" y="770" as="sourcePoint" />
            <mxPoint x="1390" y="720" as="targetPoint" />
          </mxGeometry>
        </mxCell>
        <mxCell id="003qnyI-rnYT914vEPMR-29" value="" style="endArrow=none;html=1;rounded=0;exitX=1;exitY=0.5;exitDx=0;exitDy=0;entryX=0;entryY=0.5;entryDx=0;entryDy=0;" parent="WIyWlLk6GJQsqaUBKTNV-1" source="003qnyI-rnYT914vEPMR-11" target="003qnyI-rnYT914vEPMR-10" edge="1">
          <mxGeometry width="50" height="50" relative="1" as="geometry">
            <mxPoint x="1050" y="370" as="sourcePoint" />
            <mxPoint x="1100" y="320" as="targetPoint" />
          </mxGeometry>
        </mxCell>
        <mxCell id="003qnyI-rnYT914vEPMR-30" value="&lt;p style=&quot;margin:0px;margin-top:4px;text-align:center;&quot;&gt;&lt;b&gt;Server&lt;/b&gt;&lt;/p&gt;&lt;hr size=&quot;1&quot; style=&quot;border-style:solid;&quot;&gt;&lt;p style=&quot;margin:0px;margin-left:4px;&quot;&gt;-&amp;nbsp;threadServer: Thread&lt;/p&gt;&lt;p style=&quot;margin:0px;margin-left:4px;&quot;&gt;- registroRMI: Registry&lt;/p&gt;&lt;p style=&quot;margin:0px;margin-left:4px;&quot;&gt;-&amp;nbsp;autenticatore: Autenticatore&lt;/p&gt;&lt;p style=&quot;margin:0px;margin-left:4px;&quot;&gt;-&amp;nbsp;gestoreCentriMonitoraggio: GestoreCentriMonitoraggio&lt;/p&gt;&lt;p style=&quot;margin:0px;margin-left:4px;&quot;&gt;-&amp;nbsp;gestoreMisurazioni: GestoreMisurazioni&lt;/p&gt;&lt;p style=&quot;margin:0px;margin-left:4px;&quot;&gt;-&amp;nbsp;repositoryPuntiInteresse: RepositoryPuntiInteresse&lt;/p&gt;&lt;p style=&quot;margin:0px;margin-left:4px;&quot;&gt;- configFilePath: String&lt;/p&gt;&lt;p style=&quot;margin:0px;margin-left:4px;&quot;&gt;- properties: Properties&lt;/p&gt;&lt;p style=&quot;margin:0px;margin-left:4px;&quot;&gt;- running: boolean&lt;/p&gt;&lt;hr size=&quot;1&quot; style=&quot;border-style:solid;&quot;&gt;&lt;p style=&quot;margin:0px;margin-left:4px;&quot;&gt;+ Server()&lt;/p&gt;&lt;p style=&quot;margin:0px;margin-left:4px;&quot;&gt;+&amp;nbsp;ottieniIstanzaServer(): Server&lt;/p&gt;&lt;p style=&quot;margin:0px;margin-left:4px;&quot;&gt;+ run(): void&lt;/p&gt;&lt;p style=&quot;margin:0px;margin-left:4px;&quot;&gt;+&amp;nbsp;inizializzaServer(): void&lt;/p&gt;&lt;p style=&quot;margin:0px;margin-left:4px;&quot;&gt;+&amp;nbsp;start(): void&lt;/p&gt;&lt;p style=&quot;margin:0px;margin-left:4px;&quot;&gt;+&amp;nbsp;stop(): void&lt;/p&gt;" style="verticalAlign=top;align=left;overflow=fill;html=1;whiteSpace=wrap;" parent="WIyWlLk6GJQsqaUBKTNV-1" vertex="1">
          <mxGeometry x="2040" y="540" width="340" height="270" as="geometry" />
        </mxCell>
        <mxCell id="003qnyI-rnYT914vEPMR-31" value="&lt;p style=&quot;margin:0px;margin-top:4px;text-align:center;&quot;&gt;&lt;b&gt;ContenitoreSingletonServer&lt;/b&gt;&lt;br&gt;&lt;/p&gt;&lt;hr size=&quot;1&quot; style=&quot;border-style:solid;&quot;&gt;&lt;p style=&quot;margin:0px;margin-left:4px;&quot;&gt;- singleton: Server&lt;/p&gt;" style="verticalAlign=top;align=left;overflow=fill;html=1;whiteSpace=wrap;" parent="WIyWlLk6GJQsqaUBKTNV-1" vertex="1">
          <mxGeometry x="2068" y="450" width="280" height="50" as="geometry" />
        </mxCell>
        <mxCell id="003qnyI-rnYT914vEPMR-32" value="&lt;p style=&quot;margin:0px;margin-top:4px;text-align:center;&quot;&gt;&lt;b&gt;ServerFrame&lt;/b&gt;&lt;br&gt;&lt;/p&gt;&lt;hr size=&quot;1&quot; style=&quot;border-style:solid;&quot;&gt;&lt;p style=&quot;margin:0px;margin-left:4px;&quot;&gt;-&amp;nbsp;serverRunning: boolean&lt;/p&gt;&lt;p style=&quot;margin:0px;margin-left:4px;&quot;&gt;- server: Server&lt;/p&gt;&lt;p style=&quot;margin:0px;margin-left:4px;&quot;&gt;- configFilePath: String&lt;/p&gt;&lt;p style=&quot;margin:0px;margin-left:4px;&quot;&gt;- properties: Properties&lt;/p&gt;&lt;hr size=&quot;1&quot; style=&quot;border-style:solid;&quot;&gt;&lt;p style=&quot;margin:0px;margin-left:4px;&quot;&gt;+ ServerFrame()&lt;/p&gt;&lt;p style=&quot;margin:0px;margin-left:4px;&quot;&gt;- setBackgroundImage(imagePath: String): void&lt;/p&gt;&lt;p style=&quot;margin:0px;margin-left:4px;&quot;&gt;- initComponents(): void&lt;/p&gt;&lt;p style=&quot;margin:0px;margin-left:4px;&quot;&gt;- avviaActionPerformed(): void&lt;/p&gt;&lt;p style=&quot;margin:0px;margin-left:4px;&quot;&gt;+ main(): void&lt;/p&gt;" style="verticalAlign=top;align=left;overflow=fill;html=1;whiteSpace=wrap;" parent="WIyWlLk6GJQsqaUBKTNV-1" vertex="1">
          <mxGeometry x="2460" y="580" width="270" height="180" as="geometry" />
        </mxCell>
        <mxCell id="003qnyI-rnYT914vEPMR-33" value="" style="endArrow=none;html=1;rounded=0;exitX=0.468;exitY=-0.012;exitDx=0;exitDy=0;exitPerimeter=0;" parent="WIyWlLk6GJQsqaUBKTNV-1" source="003qnyI-rnYT914vEPMR-30" edge="1">
          <mxGeometry width="50" height="50" relative="1" as="geometry">
            <mxPoint x="2400" y="520" as="sourcePoint" />
            <mxPoint x="2199" y="500" as="targetPoint" />
          </mxGeometry>
        </mxCell>
        <mxCell id="003qnyI-rnYT914vEPMR-37" value="" style="endArrow=none;html=1;rounded=0;" parent="WIyWlLk6GJQsqaUBKTNV-1" edge="1">
          <mxGeometry width="50" height="50" relative="1" as="geometry">
            <mxPoint x="1920" y="60" as="sourcePoint" />
            <mxPoint x="1920" y="1440" as="targetPoint" />
          </mxGeometry>
        </mxCell>
        <mxCell id="003qnyI-rnYT914vEPMR-38" value="" style="endArrow=none;html=1;rounded=0;exitX=0.996;exitY=0.205;exitDx=0;exitDy=0;exitPerimeter=0;" parent="WIyWlLk6GJQsqaUBKTNV-1" source="003qnyI-rnYT914vEPMR-9" edge="1">
          <mxGeometry width="50" height="50" relative="1" as="geometry">
            <mxPoint x="1520" y="80" as="sourcePoint" />
            <mxPoint x="1920" y="60" as="targetPoint" />
          </mxGeometry>
        </mxCell>
        <mxCell id="003qnyI-rnYT914vEPMR-40" value="" style="endArrow=none;html=1;rounded=0;exitX=1.003;exitY=0.466;exitDx=0;exitDy=0;exitPerimeter=0;" parent="WIyWlLk6GJQsqaUBKTNV-1" source="003qnyI-rnYT914vEPMR-12" edge="1">
          <mxGeometry width="50" height="50" relative="1" as="geometry">
            <mxPoint x="1840" y="630" as="sourcePoint" />
            <mxPoint x="1920" y="580" as="targetPoint" />
          </mxGeometry>
        </mxCell>
        <mxCell id="003qnyI-rnYT914vEPMR-41" value="" style="endArrow=none;html=1;rounded=0;entryX=1.008;entryY=0.564;entryDx=0;entryDy=0;entryPerimeter=0;" parent="WIyWlLk6GJQsqaUBKTNV-1" target="003qnyI-rnYT914vEPMR-14" edge="1">
          <mxGeometry width="50" height="50" relative="1" as="geometry">
            <mxPoint x="1920" y="1090" as="sourcePoint" />
            <mxPoint x="1990" y="1060" as="targetPoint" />
          </mxGeometry>
        </mxCell>
        <mxCell id="003qnyI-rnYT914vEPMR-42" value="" style="endArrow=none;html=1;rounded=0;exitX=1;exitY=0.631;exitDx=0;exitDy=0;exitPerimeter=0;" parent="WIyWlLk6GJQsqaUBKTNV-1" source="003qnyI-rnYT914vEPMR-15" edge="1">
          <mxGeometry width="50" height="50" relative="1" as="geometry">
            <mxPoint x="1870" y="1490" as="sourcePoint" />
            <mxPoint x="1920" y="1440" as="targetPoint" />
          </mxGeometry>
        </mxCell>
        <mxCell id="003qnyI-rnYT914vEPMR-44" value="" style="endArrow=none;html=1;rounded=0;entryX=0;entryY=0.5;entryDx=0;entryDy=0;" parent="WIyWlLk6GJQsqaUBKTNV-1" target="003qnyI-rnYT914vEPMR-30" edge="1">
          <mxGeometry width="50" height="50" relative="1" as="geometry">
            <mxPoint x="1920" y="675" as="sourcePoint" />
            <mxPoint x="2020" y="660" as="targetPoint" />
          </mxGeometry>
        </mxCell>
        <mxCell id="003qnyI-rnYT914vEPMR-45" value="&lt;p style=&quot;margin:0px;margin-top:4px;text-align:center;&quot;&gt;&lt;b&gt;ImpostazioniServer&lt;/b&gt;&lt;br&gt;&lt;/p&gt;&lt;hr size=&quot;1&quot; style=&quot;border-style:solid;&quot;&gt;&lt;p style=&quot;margin:0px;margin-left:4px;&quot;&gt;-&amp;nbsp;USERNAME: String&lt;/p&gt;&lt;p style=&quot;margin:0px;margin-left:4px;&quot;&gt;- PASSWORD: String&lt;/p&gt;&lt;hr size=&quot;1&quot; style=&quot;border-style:solid;&quot;&gt;&lt;p style=&quot;margin:0px;margin-left:4px;&quot;&gt;+ impostaUsername(username: String): void&lt;br&gt;&lt;/p&gt;&lt;p style=&quot;margin:0px;margin-left:4px;&quot;&gt;+&amp;nbsp;impostaPassword(password: String): void&lt;/p&gt;&lt;p style=&quot;margin:0px;margin-left:4px;&quot;&gt;+&amp;nbsp;impostaCredenziali(username: String, password: String): void&lt;/p&gt;&lt;p style=&quot;margin:0px;margin-left:4px;&quot;&gt;+&amp;nbsp;ottieniUsername(): String&lt;/p&gt;&lt;p style=&quot;margin:0px;margin-left:4px;&quot;&gt;+&amp;nbsp;ottieniPassword(): String&lt;/p&gt;&lt;p style=&quot;margin:0px;margin-left:4px;&quot;&gt;+&amp;nbsp;controlloCredenziali(username: String, password: String)&lt;/p&gt;" style="verticalAlign=top;align=left;overflow=fill;html=1;whiteSpace=wrap;" parent="WIyWlLk6GJQsqaUBKTNV-1" vertex="1">
          <mxGeometry x="2432.5" y="300" width="325" height="220" as="geometry" />
        </mxCell>
        <mxCell id="003qnyI-rnYT914vEPMR-46" value="" style="endArrow=none;html=1;rounded=0;exitX=0.5;exitY=0;exitDx=0;exitDy=0;entryX=0.5;entryY=1;entryDx=0;entryDy=0;" parent="WIyWlLk6GJQsqaUBKTNV-1" source="003qnyI-rnYT914vEPMR-32" target="003qnyI-rnYT914vEPMR-45" edge="1">
          <mxGeometry width="50" height="50" relative="1" as="geometry">
            <mxPoint x="2540" y="570" as="sourcePoint" />
            <mxPoint x="2590" y="520" as="targetPoint" />
          </mxGeometry>
        </mxCell>
        <mxCell id="003qnyI-rnYT914vEPMR-47" value="&lt;p style=&quot;margin:0px;margin-top:4px;text-align:center;&quot;&gt;&lt;b&gt;ConnettoreDatabase&lt;/b&gt;&lt;br&gt;&lt;/p&gt;&lt;hr size=&quot;1&quot; style=&quot;border-style:solid;&quot;&gt;&lt;p style=&quot;margin:0px;margin-left:4px;&quot;&gt;-&amp;nbsp;ConnettoreDatabase()&lt;/p&gt;&lt;p style=&quot;margin:0px;margin-left:4px;&quot;&gt;+&amp;nbsp;ottieniConnettore(): ConnettoreDatabase&lt;/p&gt;&lt;p style=&quot;margin:0px;margin-left:4px;&quot;&gt;+&amp;nbsp;ottieniConnessioneDatabase(): Connection&lt;/p&gt;" style="verticalAlign=top;align=left;overflow=fill;html=1;whiteSpace=wrap;" parent="WIyWlLk6GJQsqaUBKTNV-1" vertex="1">
          <mxGeometry x="2180" y="1010" width="270" height="90" as="geometry" />
        </mxCell>
        <mxCell id="003qnyI-rnYT914vEPMR-48" value="&lt;p style=&quot;margin:0px;margin-top:4px;text-align:center;&quot;&gt;&lt;b&gt;contenitoreSingletonConnettoreDatabase&lt;/b&gt;&lt;br&gt;&lt;/p&gt;&lt;hr size=&quot;1&quot; style=&quot;border-style:solid;&quot;&gt;&lt;p style=&quot;margin:0px;margin-left:4px;&quot;&gt;-&amp;nbsp;singleton:&amp;nbsp;ConnettoreDatabase&lt;/p&gt;" style="verticalAlign=top;align=left;overflow=fill;html=1;whiteSpace=wrap;" parent="WIyWlLk6GJQsqaUBKTNV-1" vertex="1">
          <mxGeometry x="2187.5" y="1135" width="255" height="55" as="geometry" />
        </mxCell>
        <mxCell id="003qnyI-rnYT914vEPMR-49" value="" style="endArrow=none;html=1;rounded=0;entryX=0.47;entryY=0.997;entryDx=0;entryDy=0;entryPerimeter=0;exitX=0.468;exitY=0.013;exitDx=0;exitDy=0;exitPerimeter=0;" parent="WIyWlLk6GJQsqaUBKTNV-1" source="003qnyI-rnYT914vEPMR-48" target="003qnyI-rnYT914vEPMR-47" edge="1">
          <mxGeometry width="50" height="50" relative="1" as="geometry">
            <mxPoint x="2330" y="1120" as="sourcePoint" />
            <mxPoint x="2310" y="1110" as="targetPoint" />
          </mxGeometry>
        </mxCell>
        <mxCell id="9sI5omRAxo7fkrl2EsGn-0" value="&lt;p style=&quot;margin:0px;margin-top:4px;text-align:center;&quot;&gt;&lt;b&gt;DizionarioDatabase&lt;/b&gt;&lt;/p&gt;&lt;hr size=&quot;1&quot; style=&quot;border-style:solid;&quot;&gt;&lt;p style=&quot;margin:0px;margin-left:4px;&quot;&gt;+&amp;nbsp;PUNTIINTERESSE_RELAZIONE: String&lt;/p&gt;&lt;p style=&quot;margin:0px;margin-left:4px;&quot;&gt;+&amp;nbsp;PUNTIINTERESSE_ATTRIBUTO_ID: String&lt;/p&gt;&lt;p style=&quot;margin:0px;margin-left:4px;&quot;&gt;+&amp;nbsp;PUNTIINTERESSE_ATTRIBUTO_NOME: String&lt;/p&gt;&lt;p style=&quot;margin:0px;margin-left:4px;&quot;&gt;+&amp;nbsp;PUNTIINTERESSE_ATTRIBUTO_NOMEASCII: String&lt;/p&gt;&lt;p style=&quot;margin:0px;margin-left:4px;&quot;&gt;+&amp;nbsp;PUNTIINTERESSE_ATTRIBUTO_CODICENAZIONE: String&lt;/p&gt;&lt;p style=&quot;margin:0px;margin-left:4px;&quot;&gt;+&amp;nbsp;PUNTIINTERESSE_ATTRIBUTO_NOMENAZIONE: String&lt;/p&gt;&lt;p style=&quot;margin:0px;margin-left:4px;&quot;&gt;+&amp;nbsp;PUNTIINTERESSE_LATITUDINE: double&lt;/p&gt;&lt;p style=&quot;margin:0px;margin-left:4px;&quot;&gt;+&amp;nbsp;PUNTIINTERESSE_LONGITUDINE: double&lt;/p&gt;&lt;p style=&quot;margin:0px;margin-left:4px;&quot;&gt;+&amp;nbsp;OPERATORI_RELAZIONE: String&lt;/p&gt;&lt;p style=&quot;margin:0px;margin-left:4px;&quot;&gt;+&amp;nbsp;OPERATORI_ATTRIBUTO_USERNAME: String&lt;/p&gt;&lt;p style=&quot;margin:0px;margin-left:4px;&quot;&gt;+&amp;nbsp;OPERATORI_ATTRIBUTO_NOME: String&lt;/p&gt;&lt;p style=&quot;margin:0px;margin-left:4px;&quot;&gt;+&amp;nbsp;OPERATORI_ATTRIBUTO_COGNOME: String&lt;/p&gt;&lt;p style=&quot;margin:0px;margin-left:4px;&quot;&gt;+&amp;nbsp;OPERATORI_ATTRIBUTO_CF: String&lt;/p&gt;&lt;p style=&quot;margin:0px;margin-left:4px;&quot;&gt;+&amp;nbsp;OPERATORI_ATTRIBUTO_EMAIL: String&lt;/p&gt;&lt;p style=&quot;margin:0px;margin-left:4px;&quot;&gt;+&amp;nbsp;OPERATORI_ATTRIBUTO_PASSWORD: String&lt;/p&gt;&lt;p style=&quot;margin:0px;margin-left:4px;&quot;&gt;+&amp;nbsp;OPERATORI_ATTRIBUTO_IDCENTROMONITORAGGIO: String&lt;/p&gt;&lt;p style=&quot;margin:0px;margin-left:4px;&quot;&gt;+&amp;nbsp;&lt;span style=&quot;background-color: initial;&quot;&gt;CENTRIMONITORAGGIO_RELAZIONE: String&lt;/span&gt;&lt;/p&gt;&lt;p style=&quot;margin:0px;margin-left:4px;&quot;&gt;&lt;span style=&quot;background-color: initial;&quot;&gt;+&amp;nbsp;&lt;/span&gt;&lt;span style=&quot;background-color: initial;&quot;&gt;CENTRIMONITORAGGIO_ATTRIBUTO_NOMECENTRO: String&lt;/span&gt;&lt;/p&gt;&lt;p style=&quot;margin:0px;margin-left:4px;&quot;&gt;&lt;span style=&quot;background-color: initial;&quot;&gt;+&amp;nbsp;&lt;/span&gt;&lt;span style=&quot;background-color: initial;&quot;&gt;CENTRIMONITORAGGIO_ATTRIBUTO_INDIRIZZO: String&lt;/span&gt;&lt;/p&gt;&lt;p style=&quot;margin:0px;margin-left:4px;&quot;&gt;&lt;span style=&quot;background-color: initial;&quot;&gt;+&amp;nbsp;&lt;/span&gt;&lt;span style=&quot;background-color: initial;&quot;&gt;CENTRIMONITORAGGIO_ATTRIBUTO_NUMEROCIVICO: String&lt;/span&gt;&lt;/p&gt;&lt;p style=&quot;margin:0px;margin-left:4px;&quot;&gt;&lt;span style=&quot;background-color: initial;&quot;&gt;+&amp;nbsp;&lt;/span&gt;&lt;span style=&quot;background-color: initial;&quot;&gt;CENTRIMONITORAGGIO_ATTRIBUTO_CAP: String&lt;/span&gt;&lt;/p&gt;&lt;p style=&quot;margin:0px;margin-left:4px;&quot;&gt;&lt;span style=&quot;background-color: initial;&quot;&gt;+&amp;nbsp;&lt;/span&gt;&lt;span style=&quot;background-color: initial;&quot;&gt;CENTRIMONITORAGGIO_ATTRIBUTO_COMUNE: String&lt;/span&gt;&lt;/p&gt;&lt;p style=&quot;margin:0px;margin-left:4px;&quot;&gt;&lt;span style=&quot;background-color: initial;&quot;&gt;+&amp;nbsp;&lt;/span&gt;&lt;span style=&quot;background-color: initial;&quot;&gt;CENTRIMONITORAGGIO_ATTRIBUTO_PROVINCIA: String&lt;/span&gt;&lt;/p&gt;&lt;p style=&quot;margin:0px;margin-left:4px;&quot;&gt;&lt;span style=&quot;background-color: initial;&quot;&gt;+&amp;nbsp;&lt;/span&gt;&lt;span style=&quot;background-color: initial;&quot;&gt;MISURAZIONI_RELAZIONE: String&lt;/span&gt;&lt;/p&gt;&lt;p style=&quot;margin:0px;margin-left:4px;&quot;&gt;&lt;span style=&quot;background-color: initial;&quot;&gt;+&amp;nbsp;&lt;/span&gt;&lt;span style=&quot;background-color: initial;&quot;&gt;MISURAZIONI_ATTRIBUTO_IDPUNTOINTERESSE: String&lt;/span&gt;&lt;/p&gt;&lt;p style=&quot;margin:0px;margin-left:4px;&quot;&gt;&lt;span style=&quot;background-color: initial;&quot;&gt;+&amp;nbsp;&lt;/span&gt;&lt;span style=&quot;background-color: initial;&quot;&gt;MISURAZIONI_ATTRIBUTO_IDCENTROMONITORAGGIO: String&lt;/span&gt;&lt;/p&gt;&lt;p style=&quot;margin:0px;margin-left:4px;&quot;&gt;&lt;span style=&quot;background-color: initial;&quot;&gt;+&amp;nbsp;&lt;/span&gt;&lt;span style=&quot;background-color: initial;&quot;&gt;MISURAZIONI_ATTRIBUTO_TIMESTAMP: String&lt;/span&gt;&lt;/p&gt;&lt;p style=&quot;margin:0px;margin-left:4px;&quot;&gt;&lt;span style=&quot;background-color: initial;&quot;&gt;+&lt;/span&gt;&lt;span style=&quot;background-color: initial;&quot;&gt;&amp;nbsp;MISURAZIONI_ATTRIBUTO_VALUTAZIONE_VENTO: String&lt;/span&gt;&lt;/p&gt;&lt;p style=&quot;margin:0px;margin-left:4px;&quot;&gt;&lt;span style=&quot;background-color: initial;&quot;&gt;+&amp;nbsp;&lt;/span&gt;&lt;span style=&quot;background-color: initial;&quot;&gt;MISURAZIONI_ATTRIBUTO_COMMENTO_VENTO: String&lt;/span&gt;&lt;/p&gt;&lt;p style=&quot;margin:0px;margin-left:4px;&quot;&gt;&lt;span style=&quot;background-color: initial;&quot;&gt;+&amp;nbsp;&lt;/span&gt;&lt;span style=&quot;background-color: initial;&quot;&gt;MISURAZIONI_ATTRIBUTO_VALUTAZIONE_UMIDITA: String&lt;/span&gt;&lt;/p&gt;&lt;p style=&quot;margin:0px;margin-left:4px;&quot;&gt;&lt;span style=&quot;background-color: initial;&quot;&gt;+&amp;nbsp;&lt;/span&gt;&lt;span style=&quot;background-color: initial;&quot;&gt;MISURAZIONI_ATTRIBUTO_COMMENTO_UMIDITA: String&lt;/span&gt;&lt;/p&gt;&lt;p style=&quot;margin:0px;margin-left:4px;&quot;&gt;&lt;span style=&quot;background-color: initial;&quot;&gt;+&amp;nbsp;&lt;/span&gt;&lt;span style=&quot;background-color: initial;&quot;&gt;MISURAZIONI_ATTRIBUTO_VALUTAZIONE_PRESSIONE: String&lt;/span&gt;&lt;/p&gt;&lt;p style=&quot;margin:0px;margin-left:4px;&quot;&gt;&lt;span style=&quot;background-color: initial;&quot;&gt;+&amp;nbsp;&lt;/span&gt;&lt;span style=&quot;background-color: initial;&quot;&gt;MISURAZIONI_ATTRIBUTO_COMMENTO_PRESSIONE: String&lt;/span&gt;&lt;/p&gt;&lt;p style=&quot;margin:0px;margin-left:4px;&quot;&gt;&lt;span style=&quot;background-color: initial;&quot;&gt;+&amp;nbsp;&lt;/span&gt;&lt;span style=&quot;background-color: initial;&quot;&gt;MISURAZIONI_ATTRIBUTO_VALUTAZIONE_TEMPERATURA: String&lt;/span&gt;&lt;/p&gt;&lt;p style=&quot;margin:0px;margin-left:4px;&quot;&gt;&lt;span style=&quot;background-color: initial;&quot;&gt;+&lt;/span&gt;&lt;span style=&quot;background-color: initial;&quot;&gt;&amp;nbsp;MISURAZIONI_ATTRIBUTO_COMMENTO_TEMPERATURA: String&lt;/span&gt;&lt;/p&gt;&lt;p style=&quot;margin:0px;margin-left:4px;&quot;&gt;&lt;span style=&quot;background-color: initial;&quot;&gt;+&amp;nbsp;&lt;/span&gt;&lt;span style=&quot;background-color: initial;&quot;&gt;MISURAZIONI_ATTRIBUTO_VALUTAZIONE_PRECIPITAZIONI: String&lt;/span&gt;&lt;/p&gt;&lt;p style=&quot;margin:0px;margin-left:4px;&quot;&gt;&lt;span style=&quot;background-color: initial;&quot;&gt;+&amp;nbsp;&lt;/span&gt;&lt;span style=&quot;background-color: initial;&quot;&gt;MISURAZIONI_ATTRIBUTO_COMMENTO_PRECIPITAZIONI: String&lt;/span&gt;&lt;/p&gt;&lt;p style=&quot;margin:0px;margin-left:4px;&quot;&gt;&lt;span style=&quot;background-color: initial;&quot;&gt;+&lt;/span&gt;&lt;span style=&quot;background-color: initial;&quot;&gt;&amp;nbsp;MISURAZIONI_ATTRIBUTO_VALUTAZIONE_ALTEZZAGHIACCIAI: String&lt;/span&gt;&lt;/p&gt;&lt;p style=&quot;margin:0px;margin-left:4px;&quot;&gt;&lt;span style=&quot;background-color: initial;&quot;&gt;+&amp;nbsp;&lt;/span&gt;&lt;span style=&quot;background-color: initial;&quot;&gt;MISURAZIONI_ATTRIBUTO_COMMENTO_ALTEZZAGHIACCIAI: String&lt;/span&gt;&lt;/p&gt;&lt;p style=&quot;margin:0px;margin-left:4px;&quot;&gt;&lt;span style=&quot;background-color: initial;&quot;&gt;+&amp;nbsp;&lt;/span&gt;&lt;span style=&quot;background-color: initial;&quot;&gt;MISURAZIONI_ATTRIBUTO_VALUTAZIONE_MASSAGHIACCIAI: String&lt;/span&gt;&lt;/p&gt;&lt;p style=&quot;margin:0px;margin-left:4px;&quot;&gt;&lt;span style=&quot;background-color: initial;&quot;&gt;+&amp;nbsp;&lt;/span&gt;&lt;span style=&quot;background-color: initial;&quot;&gt;MISURAZIONI_ATTRIBUTO_COMMENTO_MASSAGHIACCIAI: String&lt;/span&gt;&lt;/p&gt;&lt;p style=&quot;margin:0px;margin-left:4px;&quot;&gt;&lt;span style=&quot;background-color: initial;&quot;&gt;+&amp;nbsp;&lt;/span&gt;&lt;span style=&quot;background-color: initial;&quot;&gt;PUNTIINTERESSEASSOCIATI_RELAZIONE: String&lt;/span&gt;&lt;/p&gt;&lt;p style=&quot;margin:0px;margin-left:4px;&quot;&gt;&lt;span style=&quot;background-color: initial;&quot;&gt;+&amp;nbsp;&lt;/span&gt;&lt;span style=&quot;background-color: initial;&quot;&gt;PUNTIINTERESSEASSOCIATI_ATTRIBUTO_IDPUNTOINTERESSE: String&lt;/span&gt;&lt;/p&gt;&lt;p style=&quot;margin:0px;margin-left:4px;&quot;&gt;&lt;span style=&quot;background-color: initial;&quot;&gt;+&amp;nbsp;&lt;/span&gt;&lt;span style=&quot;background-color: initial;&quot;&gt;PUNTIINTERESSEASSOCIATI_ATTRIBUTO_IDCENTROMONITORAGGIO: String&lt;/span&gt;&lt;/p&gt;" style="verticalAlign=top;align=left;overflow=fill;html=1;whiteSpace=wrap;" parent="WIyWlLk6GJQsqaUBKTNV-1" vertex="1">
          <mxGeometry x="2630" y="830" width="440" height="690" as="geometry" />
        </mxCell>
        <mxCell id="9sI5omRAxo7fkrl2EsGn-1" value="&lt;p style=&quot;margin:0px;margin-top:4px;text-align:center;&quot;&gt;&lt;b&gt;ImpostazioniDatabase&lt;/b&gt;&lt;br&gt;&lt;/p&gt;&lt;hr size=&quot;1&quot; style=&quot;border-style:solid;&quot;&gt;&lt;p style=&quot;margin:0px;margin-left:4px;&quot;&gt;+&amp;nbsp;PORTA_DEFAULT_POSTGRESQL: int&lt;/p&gt;&lt;p style=&quot;margin:0px;margin-left:4px;&quot;&gt;+&amp;nbsp;DRIVER_JDBC: String&lt;/p&gt;&lt;p style=&quot;margin:0px;margin-left:4px;&quot;&gt;+&amp;nbsp;NOME_DATABASE: String&lt;/p&gt;&lt;p style=&quot;margin:0px;margin-left:4px;&quot;&gt;+&amp;nbsp;URL: String&lt;/p&gt;&lt;p style=&quot;margin:0px;margin-left:4px;&quot;&gt;+ USERNAME: String&lt;/p&gt;&lt;p style=&quot;margin:0px;margin-left:4px;&quot;&gt;+ PASSWORD: String&lt;/p&gt;" style="verticalAlign=top;align=left;overflow=fill;html=1;whiteSpace=wrap;" parent="WIyWlLk6GJQsqaUBKTNV-1" vertex="1">
          <mxGeometry x="2188" y="1368" width="252" height="122" as="geometry" />
        </mxCell>
        <mxCell id="9sI5omRAxo7fkrl2EsGn-4" value="" style="endArrow=none;html=1;rounded=0;entryX=-0.013;entryY=0.571;entryDx=0;entryDy=0;entryPerimeter=0;" parent="WIyWlLk6GJQsqaUBKTNV-1" target="003qnyI-rnYT914vEPMR-47" edge="1">
          <mxGeometry width="50" height="50" relative="1" as="geometry">
            <mxPoint x="1920" y="1061" as="sourcePoint" />
            <mxPoint x="2070" y="1040" as="targetPoint" />
          </mxGeometry>
        </mxCell>
        <mxCell id="9sI5omRAxo7fkrl2EsGn-5" value="" style="endArrow=none;html=1;rounded=0;" parent="WIyWlLk6GJQsqaUBKTNV-1" edge="1">
          <mxGeometry width="50" height="50" relative="1" as="geometry">
            <mxPoint x="1920" y="910" as="sourcePoint" />
            <mxPoint x="2630" y="910" as="targetPoint" />
          </mxGeometry>
        </mxCell>
        <mxCell id="kTjMlGluMAoqrOWOSekc-0" value="" style="endArrow=none;html=1;rounded=0;entryX=-0.001;entryY=0.446;entryDx=0;entryDy=0;entryPerimeter=0;exitX=1.002;exitY=0.446;exitDx=0;exitDy=0;exitPerimeter=0;" edge="1" parent="WIyWlLk6GJQsqaUBKTNV-1" source="003qnyI-rnYT914vEPMR-30" target="003qnyI-rnYT914vEPMR-32">
          <mxGeometry width="50" height="50" relative="1" as="geometry">
            <mxPoint x="2400" y="670" as="sourcePoint" />
            <mxPoint x="2440" y="670" as="targetPoint" />
          </mxGeometry>
        </mxCell>
      </root>
    </mxGraphModel>
  </diagram>
</mxfile>
